<?xml version="1.0" encoding="utf-8"?>
<!-- Generator: Adobe Illustrator 16.0.0, SVG Export Plug-In . SVG Version: 6.00 Build 0)  -->
<!DOCTYPE svg PUBLIC "-//W3C//DTD SVG 1.1//EN" "http://www.w3.org/Graphics/SVG/1.1/DTD/svg11.dtd">
<svg version="1.1" id="Layer_1" xmlns="http://www.w3.org/2000/svg" xmlns:xlink="http://www.w3.org/1999/xlink" x="0px" y="0px"
	 width="48px" height="48px" viewBox="0 0 48 48" enable-background="new 0 0 48 48" xml:space="preserve">
<path fill="#0A0A0A" d="M17.873,17.873c0-3.384,2.743-6.127,6.127-6.127s6.127,2.744,6.127,6.127c0,3.384-2.743,6.128-6.127,6.128
	S17.873,21.257,17.873,17.873z M48,24c0,13.233-10.766,24-24,24S0,37.233,0,24C0,10.766,10.766,0,24,0S48,10.766,48,24z M44.12,24
	c0-11.094-9.026-20.119-20.12-20.119S3.881,12.906,3.881,24c0,11.093,9.025,20.118,20.119,20.118S44.12,35.093,44.12,24z
	 M29.472,25.972c-1.447,1.31-3.364,2.114-5.471,2.114c-2.188,0-3.915-0.864-5.381-2.265C14.584,27.394,12,31.12,12,35.418v0.233
	c3,3.357,7.316,5.472,12.258,5.472c4.67,0,8.742-1.884,11.742-4.925v-0.78C36,31.247,33.319,27.62,29.472,25.972z"/>
</svg>
