<?xml version="1.0" encoding="utf-8"?>
<!-- Generator: Adobe Illustrator 16.0.0, SVG Export Plug-In . SVG Version: 6.00 Build 0)  -->
<!DOCTYPE svg PUBLIC "-//W3C//DTD SVG 1.1//EN" "http://www.w3.org/Graphics/SVG/1.1/DTD/svg11.dtd">
<svg version="1.1" id="Layer_1" xmlns="http://www.w3.org/2000/svg" xmlns:xlink="http://www.w3.org/1999/xlink" x="0px" y="0px"
	 width="48px" height="48px" viewBox="0 0 48 48" enable-background="new 0 0 48 48" xml:space="preserve">
<path fill="#0A0A0A" d="M24,0C10.766,0,0,10.766,0,24c0,13.234,10.766,24,24,24s24-10.766,24-24C48,10.766,37.234,0,24,0z
	 M24,44.119C12.906,44.119,3.881,35.094,3.881,24S12.906,3.881,24,3.881S44.12,12.906,44.12,24S35.094,44.119,24,44.119z
	 M24.837,12.151C24.861,12.312,25,12.474,25,12.643v10.674l9.286,6.417c0.567,0.354,0.948,0.893,1.146,1.478
	c0.195,0.572,0.117,1.135-0.164,1.584c-0.359,0.577-0.984,0.907-1.691,0.907c-0.465,0-0.947-0.144-1.359-0.399l-9.589-6.717
	c-0.836-0.521-1.307-1.188-1.547-1.58C20.84,24.612,21,23.899,21,23.877V12.643c0-1.317,0.833-2.429,1.941-2.429
	C23.908,10.213,24.64,11.061,24.837,12.151z"/>
</svg>
